<svg width="45" height="45" viewBox="0 0 45 45" fill="none" xmlns="http://www.w3.org/2000/svg">
<path d="M44.7705 9.45978H35.9792V2.86267H33.7705V9.45978H24.9792V2.86267H22.7705V9.45978H11.7705V2.86267H9.57628V9.45978H0.770508V44.654H44.7705V9.45978ZM29.3676 42.4598H2.97917V11.654H29.3676V42.4598ZM42.5763 42.4598H40.3676V40.2511H38.1734V38.0569H35.9792V40.2511H33.7705V42.4598H31.5763V40.2511H33.7705V38.0569H35.9792V11.654H38.1734V38.0569H40.3676V40.2511H42.5763V42.4598Z" fill="white"/>
<path d="M33.7705 0.653931H24.9792V2.86259H33.7705V0.653931Z" fill="white"/>
<path d="M22.7705 0.653931H11.7705V2.86259H22.7705V0.653931Z" fill="white"/>
</svg>
