<svg width="33" height="26" viewBox="0 0 33 26" fill="none" xmlns="http://www.w3.org/2000/svg">
<path d="M30.8861 20.4639H29.3661V21.9839H3.45605V23.5139H4.98605V25.0339H30.8861V23.5139H32.4161V5.22388H30.8861V20.4639Z" fill="white"/>
<path d="M29.3661 2.17395H27.8461V18.944H29.3661V2.17395Z" fill="white"/>
<path d="M23.266 6.75398H21.746V5.22398H20.226V3.70398H15.656V5.22398H14.126V6.75398H15.656V8.27398H17.176V12.844H15.656V14.364H14.126V15.894H15.656V17.414H20.226V15.894H21.746V14.364H23.266V12.844H24.796V8.27398H23.266V6.75398Z" fill="white"/>
<path d="M14.126 12.8439H12.606V14.3639H14.126V12.8439Z" fill="white"/>
<path d="M14.126 6.75391H12.606V8.27391H14.126V6.75391Z" fill="white"/>
<path d="M12.606 14.3639H11.076V15.8939H9.55603V17.4139H14.126V15.8939H12.606V14.3639Z" fill="white"/>
<path d="M11.076 9.79393H9.55603V11.3239H11.076V12.8439H12.606V8.27393H11.076V9.79393Z" fill="white"/>
<path d="M11.076 6.75398H12.606V5.22398H14.126V3.70398H9.55603V5.22398H11.076V6.75398Z" fill="white"/>
<path d="M11.076 12.8439H9.55603V14.3639H11.076V12.8439Z" fill="white"/>
<path d="M11.076 6.75391H9.55603V8.27391H11.076V6.75391Z" fill="white"/>
<path d="M9.55601 14.3639H8.03601V15.8939H9.55601V14.3639Z" fill="white"/>
<path d="M9.55601 11.324H8.03601V12.844H9.55601V11.324Z" fill="white"/>
<path d="M9.55601 8.27393H8.03601V9.79393H9.55601V8.27393Z" fill="white"/>
<path d="M9.55601 5.22388H8.03601V6.75388H9.55601V5.22388Z" fill="white"/>
<path d="M8.03598 12.8439H6.50598V14.3639H8.03598V12.8439Z" fill="white"/>
<path d="M8.03598 6.75391H6.50598V8.27391H8.03598V6.75391Z" fill="white"/>
<path d="M8.03596 11.3239V9.79393H6.50596V8.27393H4.98596V12.8439H6.50596V11.3239H8.03596Z" fill="white"/>
<path d="M27.846 0.653931H1.93604V2.17393H27.846V0.653931Z" fill="white"/>
<path d="M27.846 18.944H1.93604V20.464H27.846V18.944Z" fill="white"/>
<path d="M1.93602 2.17395H0.416016V18.944H1.93602V2.17395Z" fill="white"/>
</svg>
