<svg width="45" height="45" viewBox="0 0 45 45" fill="none" xmlns="http://www.w3.org/2000/svg">
<g clip-path="url(#clip0_2_14423)">
<path d="M42.6736 32.0866H36.3899V29.9828H38.4799V27.8928H7.06112V29.9828H9.158V32.0866H2.86737V44.6541H42.6736V32.0866ZM11.2411 29.9828H34.2861V32.0866H11.2411V29.9828ZM40.5836 42.5641H4.95737V34.1766H40.5836V42.5641Z" fill="white"/>
<path d="M40.5836 2.74402H38.4799V27.8928H40.5836V2.74402Z" fill="white"/>
<path d="M36.3899 36.2665H25.9124V38.3702H36.3899V36.2665Z" fill="white"/>
<path d="M28.0024 15.3251H25.9124V17.4151H28.0024V15.3251Z" fill="white"/>
<path d="M28.0024 11.1313H25.9124V13.2213H28.0024V11.1313Z" fill="white"/>
<path d="M25.9124 17.4152H19.6286V19.5052H25.9124V17.4152Z" fill="white"/>
<path d="M19.6287 15.3251H17.5249V17.4151H19.6287V15.3251Z" fill="white"/>
<path d="M19.6287 11.1313H17.5249V13.2213H19.6287V11.1313Z" fill="white"/>
<path d="M9.15802 25.8027H36.3968V4.84766H9.15802V25.8027ZM11.2411 6.93766H34.2861V23.6989H11.2411V6.93766Z" fill="white"/>
<path d="M13.3449 36.2665H9.15112V40.4602H13.3449V36.2665Z" fill="white"/>
<path d="M38.4799 0.653931H7.06116V2.74393H38.4799V0.653931Z" fill="white"/>
<path d="M7.06115 2.74402H4.9574V27.8928H7.06115V2.74402Z" fill="white"/>
</g>
<defs>
<clipPath id="clip0_2_14423">
<rect width="44" height="44" fill="white" transform="translate(0.770508 0.653931)"/>
</clipPath>
</defs>
</svg>
