<svg width="19" height="19" viewBox="0 0 19 19" fill="none" xmlns="http://www.w3.org/2000/svg">
<path d="M16.7003 7.51099H15.8453V11.7972H16.7003V7.51099Z" fill="white"/>
<path d="M15.8454 11.7971H14.9904V13.5127H15.8454V11.7971Z" fill="white"/>
<path d="M15.8454 5.79517H14.9904V7.51079H15.8454V5.79517Z" fill="white"/>
<path d="M15.8453 4.94023V4.08523H16.7003V3.22461H12.4141V7.51086H13.2747V6.65586H14.1297V5.79523H14.9903V4.94023H15.8453Z" fill="white"/>
<path d="M14.9903 13.5127H14.1297V14.3677H14.9903V13.5127Z" fill="white"/>
<path d="M14.1297 14.3677H13.2747V15.2283H14.1297V14.3677Z" fill="white"/>
<path d="M13.2747 15.2283H11.5591V16.0833H13.2747V15.2283Z" fill="white"/>
<path d="M11.5591 16.0835H8.12787V16.9385H11.5591V16.0835Z" fill="white"/>
<path d="M10.7041 2.36963H7.27283V3.22463H10.7041V2.36963Z" fill="white"/>
<path d="M7.27281 3.22461H5.55719V4.08523H7.27281V3.22461Z" fill="white"/>
<path d="M5.55721 4.08521H4.70221V4.94021H5.55721V4.08521Z" fill="white"/>
<path d="M4.70223 4.94019H3.84723V5.79519H4.70223V4.94019Z" fill="white"/>
<path d="M2.98659 14.3677V15.2284H2.13159V16.0834H6.41784V11.7971H5.55722V12.6521H4.70222V13.5127H3.84722V14.3677H2.98659Z" fill="white"/>
<path d="M3.8472 11.7971H2.98657V13.5127H3.8472V11.7971Z" fill="white"/>
<path d="M3.8472 5.79517H2.98657V7.51079H3.8472V5.79517Z" fill="white"/>
<path d="M2.98659 7.51099H2.13159V11.7972H2.98659V7.51099Z" fill="white"/>
</svg>
