<svg width="45" height="45" viewBox="0 0 45 45" fill="none" xmlns="http://www.w3.org/2000/svg">
<path d="M8.31351 4.15625H4.875V6.26H8.31351V4.15625Z" fill="white"/>
<path d="M9.055 16.7375H4.875V18.8413H9.055V16.7375Z" fill="white"/>
<path d="M28.1127 4.17004H17.4282V6.26004H28.1127V4.17004Z" fill="white"/>
<path d="M17.4285 2.06628H8.31348V4.17003H17.4285V2.06628Z" fill="white"/>
<path d="M4.87493 6.26013H2.77118V16.7376H4.87493V6.26013Z" fill="white"/>
<path d="M11.1588 16.7375H9.05505V41.1378H11.1588V16.7375Z" fill="white"/>
<path d="M11.1447 41.1378L11.1447 43.2416L34.3965 43.2416L34.3965 41.1378L11.1447 41.1378Z" fill="white"/>
<path d="M37.2288 4.15625H40.6663V6.26H37.2288V4.15625Z" fill="white"/>
<path d="M36.4863 16.7375H40.6663V18.8413H36.4863V16.7375Z" fill="white"/>
<path d="M28.1125 2.06628H37.2288V4.17003H28.1125V2.06628Z" fill="white"/>
<path d="M40.6663 6.26013H42.77V16.7376H40.6663V6.26013Z" fill="white"/>
<path d="M34.3825 16.7375H36.4862V41.1378H34.3825V16.7375Z" fill="white"/>
<path d="M28.0094 16.7444H25.9194V18.8344H28.0094V16.7444Z" fill="white"/>
<path d="M28.0094 12.5507H25.9194V14.6407H28.0094V12.5507Z" fill="white"/>
<path d="M25.9193 18.8345H19.6356V20.9245H25.9193V18.8345Z" fill="white"/>
<path d="M19.6356 16.7444H17.5319V18.8344H19.6356V16.7444Z" fill="white"/>
<path d="M19.6356 12.5507H17.5319V14.6407H19.6356V12.5507Z" fill="white"/>
</svg>
